<mxfile host="app.diagrams.net" agent="Mozilla/5.0 (Windows NT 10.0; Win64; x64; rv:133.0) Gecko/20100101 Firefox/133.0" version="25.0.3">
  <diagram name="Page-1" id="6Jbj6kBs0kUYRDYwtNAd">
    <mxGraphModel dx="2529" dy="1462" grid="1" gridSize="10" guides="1" tooltips="1" connect="1" arrows="1" fold="1" page="1" pageScale="1" pageWidth="850" pageHeight="1100" math="0" shadow="0">
      <root>
        <mxCell id="0" />
        <mxCell id="1" parent="0" />
        <mxCell id="KHdqHq2OSzX_Sbnmbst--1" value="&lt;font style=&quot;font-size: 16px;&quot;&gt;Початок&lt;/font&gt;" style="rounded=1;whiteSpace=wrap;html=1;arcSize=45;direction=west;fillColor=none;" vertex="1" parent="1">
          <mxGeometry x="360" y="20" width="120" height="40" as="geometry" />
        </mxCell>
        <mxCell id="KHdqHq2OSzX_Sbnmbst--2" value="" style="rhombus;whiteSpace=wrap;html=1;fillColor=none;" vertex="1" parent="1">
          <mxGeometry x="360" y="220" width="120" height="60" as="geometry" />
        </mxCell>
        <mxCell id="KHdqHq2OSzX_Sbnmbst--3" value="&lt;div style=&quot;line-height: 100%;&quot;&gt;&lt;font&gt;Надходження&amp;nbsp;&lt;/font&gt;&lt;/div&gt;&lt;div style=&quot;line-height: 100%;&quot;&gt;&lt;font&gt;мовного пакету за нормальним розподілом (&lt;span id=&quot;docs-internal-guid-232af9cb-7fff-efdd-0732-bfd7813b9b58&quot; style=&quot;font-family: &amp;quot;Times New Roman&amp;quot;, serif; color: rgb(0, 0, 0); background-color: transparent; font-weight: 400; font-style: normal; font-variant: normal; text-decoration: none; vertical-align: baseline; white-space: pre-wrap;&quot;&gt;6±3 мс&lt;/span&gt;&lt;font&gt;)&lt;br&gt;&lt;/font&gt;&lt;/font&gt;&lt;/div&gt;" style="rounded=0;whiteSpace=wrap;html=1;fillColor=none;" vertex="1" parent="1">
          <mxGeometry x="360" y="110" width="120" height="60" as="geometry" />
        </mxCell>
        <mxCell id="KHdqHq2OSzX_Sbnmbst--4" value="" style="endArrow=classic;html=1;rounded=0;" edge="1" parent="1">
          <mxGeometry width="50" height="50" relative="1" as="geometry">
            <mxPoint x="419.71" y="60" as="sourcePoint" />
            <mxPoint x="419.71" y="110" as="targetPoint" />
          </mxGeometry>
        </mxCell>
        <mxCell id="KHdqHq2OSzX_Sbnmbst--5" value="&lt;font&gt;Обробка 1-м каналом у звичайному режимі (5 мс)&lt;br&gt;&lt;/font&gt;" style="shape=process;whiteSpace=wrap;html=1;backgroundOutline=1;fillColor=none;" vertex="1" parent="1">
          <mxGeometry x="250" y="410" width="120" height="60" as="geometry" />
        </mxCell>
        <mxCell id="KHdqHq2OSzX_Sbnmbst--6" value="&lt;font&gt;Обробка 1-м каналом у прискореному режимі (4 мс)&lt;br&gt;&lt;/font&gt;" style="shape=process;whiteSpace=wrap;html=1;backgroundOutline=1;fillColor=none;" vertex="1" parent="1">
          <mxGeometry x="470" y="410" width="120" height="60" as="geometry" />
        </mxCell>
        <mxCell id="KHdqHq2OSzX_Sbnmbst--7" value="&lt;font&gt;Обробка 2-м каналом у звичайному режимі 5 мс&lt;br&gt;&lt;/font&gt;" style="shape=process;whiteSpace=wrap;html=1;backgroundOutline=1;fillColor=none;" vertex="1" parent="1">
          <mxGeometry x="250" y="630" width="120" height="60" as="geometry" />
        </mxCell>
        <mxCell id="KHdqHq2OSzX_Sbnmbst--8" value="" style="endArrow=classic;html=1;rounded=0;" edge="1" parent="1">
          <mxGeometry width="50" height="50" relative="1" as="geometry">
            <mxPoint x="309.76" y="470" as="sourcePoint" />
            <mxPoint x="309.76" y="520" as="targetPoint" />
          </mxGeometry>
        </mxCell>
        <mxCell id="KHdqHq2OSzX_Sbnmbst--9" value="&lt;font&gt;Обробка 2-м каналом у прискореному режимі (4 мс)&lt;br&gt;&lt;/font&gt;" style="shape=process;whiteSpace=wrap;html=1;backgroundOutline=1;fillColor=none;" vertex="1" parent="1">
          <mxGeometry x="470" y="630" width="120" height="60" as="geometry" />
        </mxCell>
        <mxCell id="KHdqHq2OSzX_Sbnmbst--10" value="" style="endArrow=classic;html=1;rounded=0;" edge="1" parent="1">
          <mxGeometry width="50" height="50" relative="1" as="geometry">
            <mxPoint x="419.65999999999997" y="170" as="sourcePoint" />
            <mxPoint x="419.65999999999997" y="220" as="targetPoint" />
          </mxGeometry>
        </mxCell>
        <mxCell id="KHdqHq2OSzX_Sbnmbst--12" value="" style="endArrow=none;html=1;rounded=0;entryX=0;entryY=0.5;entryDx=0;entryDy=0;" edge="1" parent="1">
          <mxGeometry width="50" height="50" relative="1" as="geometry">
            <mxPoint x="480" y="249.66000000000003" as="sourcePoint" />
            <mxPoint x="530" y="249.66000000000003" as="targetPoint" />
          </mxGeometry>
        </mxCell>
        <mxCell id="KHdqHq2OSzX_Sbnmbst--13" value="" style="endArrow=classic;html=1;rounded=0;" edge="1" parent="1">
          <mxGeometry width="50" height="50" relative="1" as="geometry">
            <mxPoint x="310" y="250" as="sourcePoint" />
            <mxPoint x="310" y="300" as="targetPoint" />
          </mxGeometry>
        </mxCell>
        <mxCell id="KHdqHq2OSzX_Sbnmbst--14" value="Так" style="text;html=1;align=center;verticalAlign=middle;whiteSpace=wrap;rounded=0;" vertex="1" parent="1">
          <mxGeometry x="300" y="220" width="60" height="30" as="geometry" />
        </mxCell>
        <mxCell id="KHdqHq2OSzX_Sbnmbst--15" value="&lt;div style=&quot;line-height: 100%;&quot;&gt;&lt;font&gt;Співвідношення к-сті оброблених пакетів до створених &amp;gt;= 0.7&lt;/font&gt;&lt;/div&gt;" style="text;html=1;align=center;verticalAlign=middle;whiteSpace=wrap;rounded=0;" vertex="1" parent="1">
          <mxGeometry x="360" y="220" width="120" height="60" as="geometry" />
        </mxCell>
        <mxCell id="KHdqHq2OSzX_Sbnmbst--16" value="Ні" style="text;html=1;align=center;verticalAlign=middle;whiteSpace=wrap;rounded=0;" vertex="1" parent="1">
          <mxGeometry x="480" y="220" width="60" height="30" as="geometry" />
        </mxCell>
        <mxCell id="KHdqHq2OSzX_Sbnmbst--17" value="" style="endArrow=classic;html=1;rounded=0;" edge="1" parent="1">
          <mxGeometry width="50" height="50" relative="1" as="geometry">
            <mxPoint x="530" y="250" as="sourcePoint" />
            <mxPoint x="530" y="300" as="targetPoint" />
          </mxGeometry>
        </mxCell>
        <mxCell id="KHdqHq2OSzX_Sbnmbst--18" value="" style="endArrow=classic;html=1;rounded=0;" edge="1" parent="1">
          <mxGeometry width="50" height="50" relative="1" as="geometry">
            <mxPoint x="529.6599999999999" y="470" as="sourcePoint" />
            <mxPoint x="529.6599999999999" y="520" as="targetPoint" />
          </mxGeometry>
        </mxCell>
        <mxCell id="KHdqHq2OSzX_Sbnmbst--19" value="" style="endArrow=none;html=1;rounded=0;" edge="1" parent="1">
          <mxGeometry width="50" height="50" relative="1" as="geometry">
            <mxPoint x="309.76" y="740" as="sourcePoint" />
            <mxPoint x="309.76" y="690" as="targetPoint" />
          </mxGeometry>
        </mxCell>
        <mxCell id="KHdqHq2OSzX_Sbnmbst--20" value="" style="endArrow=none;html=1;rounded=0;" edge="1" parent="1">
          <mxGeometry width="50" height="50" relative="1" as="geometry">
            <mxPoint x="529.6599999999999" y="740" as="sourcePoint" />
            <mxPoint x="529.6599999999999" y="690" as="targetPoint" />
          </mxGeometry>
        </mxCell>
        <mxCell id="KHdqHq2OSzX_Sbnmbst--23" value="" style="endArrow=none;html=1;rounded=0;" edge="1" parent="1">
          <mxGeometry width="50" height="50" relative="1" as="geometry">
            <mxPoint x="310" y="740" as="sourcePoint" />
            <mxPoint x="370" y="740" as="targetPoint" />
          </mxGeometry>
        </mxCell>
        <mxCell id="KHdqHq2OSzX_Sbnmbst--25" value="" style="endArrow=classic;html=1;rounded=0;entryX=0.5;entryY=0;entryDx=0;entryDy=0;" edge="1" parent="1" target="KHdqHq2OSzX_Sbnmbst--28">
          <mxGeometry width="50" height="50" relative="1" as="geometry">
            <mxPoint x="370" y="740" as="sourcePoint" />
            <mxPoint x="370" y="790" as="targetPoint" />
          </mxGeometry>
        </mxCell>
        <mxCell id="KHdqHq2OSzX_Sbnmbst--26" value="" style="endArrow=classic;html=1;rounded=0;entryX=0.5;entryY=0;entryDx=0;entryDy=0;" edge="1" parent="1" target="KHdqHq2OSzX_Sbnmbst--28">
          <mxGeometry width="50" height="50" relative="1" as="geometry">
            <mxPoint x="470" y="740" as="sourcePoint" />
            <mxPoint x="440" y="790" as="targetPoint" />
          </mxGeometry>
        </mxCell>
        <mxCell id="KHdqHq2OSzX_Sbnmbst--28" value="" style="rhombus;whiteSpace=wrap;html=1;fillColor=none;" vertex="1" parent="1">
          <mxGeometry x="360" y="780" width="120" height="60" as="geometry" />
        </mxCell>
        <mxCell id="KHdqHq2OSzX_Sbnmbst--29" value="&lt;div style=&quot;line-height: 100%;&quot;&gt;Тривалість життя пакету &amp;gt; 10 мс&lt;br&gt;&lt;/div&gt;" style="text;html=1;align=center;verticalAlign=middle;whiteSpace=wrap;rounded=0;" vertex="1" parent="1">
          <mxGeometry x="360" y="780" width="120" height="60" as="geometry" />
        </mxCell>
        <mxCell id="KHdqHq2OSzX_Sbnmbst--30" value="" style="endArrow=none;html=1;rounded=0;entryX=0;entryY=0.5;entryDx=0;entryDy=0;" edge="1" parent="1">
          <mxGeometry width="50" height="50" relative="1" as="geometry">
            <mxPoint x="310" y="250" as="sourcePoint" />
            <mxPoint x="360" y="250" as="targetPoint" />
          </mxGeometry>
        </mxCell>
        <mxCell id="KHdqHq2OSzX_Sbnmbst--31" value="" style="endArrow=none;html=1;rounded=0;" edge="1" parent="1">
          <mxGeometry width="50" height="50" relative="1" as="geometry">
            <mxPoint x="470" y="740" as="sourcePoint" />
            <mxPoint x="530" y="740" as="targetPoint" />
          </mxGeometry>
        </mxCell>
        <mxCell id="KHdqHq2OSzX_Sbnmbst--32" value="Так" style="text;html=1;align=center;verticalAlign=middle;whiteSpace=wrap;rounded=0;" vertex="1" parent="1">
          <mxGeometry x="300" y="780" width="60" height="30" as="geometry" />
        </mxCell>
        <mxCell id="KHdqHq2OSzX_Sbnmbst--33" value="Ні" style="text;html=1;align=center;verticalAlign=middle;whiteSpace=wrap;rounded=0;" vertex="1" parent="1">
          <mxGeometry x="480" y="780" width="60" height="30" as="geometry" />
        </mxCell>
        <mxCell id="KHdqHq2OSzX_Sbnmbst--40" value="&lt;font style=&quot;font-size: 14px;&quot;&gt;Знищення&lt;/font&gt;&lt;div&gt;&lt;font style=&quot;font-size: 14px;&quot;&gt;мовного пакету&lt;/font&gt;&lt;/div&gt;" style="rounded=0;whiteSpace=wrap;html=1;fillColor=none;" vertex="1" parent="1">
          <mxGeometry x="250" y="860" width="120" height="60" as="geometry" />
        </mxCell>
        <mxCell id="KHdqHq2OSzX_Sbnmbst--41" value="&lt;font&gt;Оновлення статистики по кількості втрачених пакетів&lt;/font&gt;" style="rounded=0;whiteSpace=wrap;html=1;fillColor=none;" vertex="1" parent="1">
          <mxGeometry x="360" y="1110" width="120" height="60" as="geometry" />
        </mxCell>
        <mxCell id="KHdqHq2OSzX_Sbnmbst--44" value="Буферизація перед 1-м каналом резервного режиму обробки" style="rounded=0;whiteSpace=wrap;html=1;fillColor=none;" vertex="1" parent="1">
          <mxGeometry x="470" y="300" width="120" height="60" as="geometry" />
        </mxCell>
        <mxCell id="KHdqHq2OSzX_Sbnmbst--45" value="Буферизація перед 1-м каналом звичайного режиму обробки" style="rounded=0;whiteSpace=wrap;html=1;fillColor=none;" vertex="1" parent="1">
          <mxGeometry x="250" y="300" width="120" height="60" as="geometry" />
        </mxCell>
        <mxCell id="KHdqHq2OSzX_Sbnmbst--46" value="" style="endArrow=classic;html=1;rounded=0;" edge="1" parent="1">
          <mxGeometry width="50" height="50" relative="1" as="geometry">
            <mxPoint x="529.66" y="360" as="sourcePoint" />
            <mxPoint x="529.66" y="410" as="targetPoint" />
          </mxGeometry>
        </mxCell>
        <mxCell id="KHdqHq2OSzX_Sbnmbst--47" value="" style="endArrow=classic;html=1;rounded=0;" edge="1" parent="1">
          <mxGeometry width="50" height="50" relative="1" as="geometry">
            <mxPoint x="309.65999999999997" y="360" as="sourcePoint" />
            <mxPoint x="309.65999999999997" y="410" as="targetPoint" />
          </mxGeometry>
        </mxCell>
        <mxCell id="KHdqHq2OSzX_Sbnmbst--50" value="Буферизація перед 2-м каналом резервного режиму обробки" style="rounded=0;whiteSpace=wrap;html=1;fillColor=none;" vertex="1" parent="1">
          <mxGeometry x="470" y="520" width="120" height="60" as="geometry" />
        </mxCell>
        <mxCell id="KHdqHq2OSzX_Sbnmbst--51" value="Буферизація перед 2-м каналом звичайного режиму обробки" style="rounded=0;whiteSpace=wrap;html=1;fillColor=none;" vertex="1" parent="1">
          <mxGeometry x="250" y="520" width="120" height="60" as="geometry" />
        </mxCell>
        <mxCell id="KHdqHq2OSzX_Sbnmbst--52" value="" style="endArrow=classic;html=1;rounded=0;" edge="1" parent="1">
          <mxGeometry width="50" height="50" relative="1" as="geometry">
            <mxPoint x="309.46" y="580" as="sourcePoint" />
            <mxPoint x="309.46" y="630" as="targetPoint" />
          </mxGeometry>
        </mxCell>
        <mxCell id="KHdqHq2OSzX_Sbnmbst--53" value="" style="endArrow=classic;html=1;rounded=0;" edge="1" parent="1">
          <mxGeometry width="50" height="50" relative="1" as="geometry">
            <mxPoint x="529.3599999999999" y="580" as="sourcePoint" />
            <mxPoint x="529.3599999999999" y="630" as="targetPoint" />
          </mxGeometry>
        </mxCell>
        <mxCell id="KHdqHq2OSzX_Sbnmbst--54" value="&lt;font style=&quot;font-size: 16px;&quot;&gt;Кінець&lt;/font&gt;" style="rounded=1;whiteSpace=wrap;html=1;arcSize=45;direction=west;fillColor=none;" vertex="1" parent="1">
          <mxGeometry x="360" y="1220" width="120" height="40" as="geometry" />
        </mxCell>
        <mxCell id="KHdqHq2OSzX_Sbnmbst--56" value="" style="endArrow=classic;html=1;rounded=0;" edge="1" parent="1">
          <mxGeometry width="50" height="50" relative="1" as="geometry">
            <mxPoint x="310" y="920" as="sourcePoint" />
            <mxPoint x="310" y="970" as="targetPoint" />
          </mxGeometry>
        </mxCell>
        <mxCell id="KHdqHq2OSzX_Sbnmbst--57" value="&lt;font style=&quot;font-size: 14px;&quot;&gt;Знищений&lt;/font&gt;&lt;div&gt;&lt;font style=&quot;font-size: 14px;&quot;&gt;мовний пакет&lt;/font&gt;&lt;/div&gt;" style="rounded=0;whiteSpace=wrap;html=1;fillColor=none;" vertex="1" parent="1">
          <mxGeometry x="250" y="970" width="120" height="60" as="geometry" />
        </mxCell>
        <mxCell id="KHdqHq2OSzX_Sbnmbst--58" value="&lt;font style=&quot;font-size: 14px;&quot;&gt;Обробка&lt;/font&gt;&lt;div&gt;&lt;font style=&quot;font-size: 14px;&quot;&gt;декодором&lt;/font&gt;&lt;/div&gt;" style="rounded=0;whiteSpace=wrap;html=1;fillColor=none;" vertex="1" parent="1">
          <mxGeometry x="470" y="860" width="120" height="60" as="geometry" />
        </mxCell>
        <mxCell id="KHdqHq2OSzX_Sbnmbst--59" value="" style="endArrow=classic;html=1;rounded=0;" edge="1" parent="1">
          <mxGeometry width="50" height="50" relative="1" as="geometry">
            <mxPoint x="530" y="920" as="sourcePoint" />
            <mxPoint x="530" y="970" as="targetPoint" />
          </mxGeometry>
        </mxCell>
        <mxCell id="KHdqHq2OSzX_Sbnmbst--60" value="&lt;font style=&quot;font-size: 14px;&quot;&gt;Оброблений мовний пакет&lt;/font&gt;" style="rounded=0;whiteSpace=wrap;html=1;fillColor=none;" vertex="1" parent="1">
          <mxGeometry x="470" y="970" width="120" height="60" as="geometry" />
        </mxCell>
        <mxCell id="KHdqHq2OSzX_Sbnmbst--63" value="" style="endArrow=none;html=1;rounded=0;entryX=0;entryY=0.5;entryDx=0;entryDy=0;" edge="1" parent="1">
          <mxGeometry width="50" height="50" relative="1" as="geometry">
            <mxPoint x="310" y="810" as="sourcePoint" />
            <mxPoint x="360" y="810" as="targetPoint" />
          </mxGeometry>
        </mxCell>
        <mxCell id="KHdqHq2OSzX_Sbnmbst--64" value="" style="endArrow=none;html=1;rounded=0;entryX=0;entryY=0.5;entryDx=0;entryDy=0;" edge="1" parent="1">
          <mxGeometry width="50" height="50" relative="1" as="geometry">
            <mxPoint x="480" y="810" as="sourcePoint" />
            <mxPoint x="530" y="810" as="targetPoint" />
          </mxGeometry>
        </mxCell>
        <mxCell id="KHdqHq2OSzX_Sbnmbst--65" value="" style="endArrow=classic;html=1;rounded=0;" edge="1" parent="1">
          <mxGeometry width="50" height="50" relative="1" as="geometry">
            <mxPoint x="309.66" y="810" as="sourcePoint" />
            <mxPoint x="309.66" y="860" as="targetPoint" />
          </mxGeometry>
        </mxCell>
        <mxCell id="KHdqHq2OSzX_Sbnmbst--66" value="" style="endArrow=classic;html=1;rounded=0;" edge="1" parent="1">
          <mxGeometry width="50" height="50" relative="1" as="geometry">
            <mxPoint x="529.66" y="810" as="sourcePoint" />
            <mxPoint x="529.66" y="860" as="targetPoint" />
          </mxGeometry>
        </mxCell>
        <mxCell id="KHdqHq2OSzX_Sbnmbst--67" value="" style="endArrow=none;html=1;rounded=0;" edge="1" parent="1">
          <mxGeometry width="50" height="50" relative="1" as="geometry">
            <mxPoint x="529.5799999999999" y="1080" as="sourcePoint" />
            <mxPoint x="529.5799999999999" y="1030" as="targetPoint" />
          </mxGeometry>
        </mxCell>
        <mxCell id="KHdqHq2OSzX_Sbnmbst--68" value="" style="endArrow=none;html=1;rounded=0;" edge="1" parent="1">
          <mxGeometry width="50" height="50" relative="1" as="geometry">
            <mxPoint x="309.5799999999999" y="1080" as="sourcePoint" />
            <mxPoint x="309.5799999999999" y="1030" as="targetPoint" />
          </mxGeometry>
        </mxCell>
        <mxCell id="KHdqHq2OSzX_Sbnmbst--72" value="" style="endArrow=classic;html=1;rounded=0;entryX=1;entryY=0.5;entryDx=0;entryDy=0;" edge="1" parent="1" target="KHdqHq2OSzX_Sbnmbst--41">
          <mxGeometry width="50" height="50" relative="1" as="geometry">
            <mxPoint x="530" y="1080" as="sourcePoint" />
            <mxPoint x="480" y="1120" as="targetPoint" />
          </mxGeometry>
        </mxCell>
        <mxCell id="KHdqHq2OSzX_Sbnmbst--73" value="" style="endArrow=classic;html=1;rounded=0;entryX=0;entryY=0.5;entryDx=0;entryDy=0;" edge="1" parent="1" target="KHdqHq2OSzX_Sbnmbst--41">
          <mxGeometry width="50" height="50" relative="1" as="geometry">
            <mxPoint x="310" y="1080" as="sourcePoint" />
            <mxPoint x="355" y="1120" as="targetPoint" />
          </mxGeometry>
        </mxCell>
        <mxCell id="KHdqHq2OSzX_Sbnmbst--74" value="" style="endArrow=none;html=1;rounded=0;" edge="1" parent="1">
          <mxGeometry width="50" height="50" relative="1" as="geometry">
            <mxPoint x="419.69999999999993" y="1220" as="sourcePoint" />
            <mxPoint x="419.69999999999993" y="1170" as="targetPoint" />
          </mxGeometry>
        </mxCell>
      </root>
    </mxGraphModel>
  </diagram>
</mxfile>
